<svg width="416" height="416" viewBox="0 0 416 416" fill="none" xmlns="http://www.w3.org/2000/svg">
<path d="M158.656 61.5551L131.145 74.5396C129.801 75.174 129.124 76.6973 129.554 78.1202L138.034 106.186C138.564 107.94 140.529 108.813 142.186 108.031L177.493 91.3671C179.15 90.5849 179.725 88.5128 178.708 86.9886L162.432 62.6027C161.607 61.3663 160.001 60.9207 158.656 61.5551Z" fill="#172830" stroke="#172830"/>
<path d="M72.6566 132.215L60.3472 160.034C59.7457 161.394 60.2304 162.989 61.4866 163.784L86.2622 179.46C87.8108 180.44 89.8682 179.814 90.6097 178.139L106.408 142.435C107.149 140.76 106.228 138.816 104.462 138.329L76.1974 130.537C74.7644 130.142 73.2581 130.856 72.6566 132.215Z" fill="#172830" stroke="#172830"/>
<path d="M62.4979 258.678L76.16 285.859C76.8276 287.187 78.3671 287.826 79.779 287.361L107.626 278.189C109.366 277.616 110.191 275.629 109.368 273.992L91.834 239.109C91.011 237.471 88.9253 236.948 87.4268 238.003L63.4516 254.878C62.2361 255.733 61.8303 257.35 62.4979 258.678Z" fill="#172830" stroke="#172830"/>
<path d="M132.132 343.179L159.987 355.408C161.348 356.005 162.942 355.516 163.733 354.258L179.338 329.437C180.313 327.885 179.682 325.83 178.004 325.093L142.255 309.398C140.577 308.662 138.637 309.588 138.155 311.356L130.444 339.643C130.053 341.077 130.771 342.581 132.132 343.179Z" fill="#172830" stroke="#172830"/>
<path d="M257.017 355.562L285.038 343.717C286.407 343.138 287.146 341.644 286.775 340.205L279.453 311.815C278.995 310.041 277.068 309.087 275.38 309.801L239.419 325.003C237.731 325.717 237.072 327.763 238.026 329.328L253.288 354.361C254.062 355.63 255.648 356.141 257.017 355.562Z" fill="#172830" stroke="#172830"/>
<path d="M339.908 285.972L354.305 259.173C355.009 257.864 354.647 256.237 353.455 255.348L329.949 237.826C328.48 236.731 326.38 237.197 325.513 238.812L307.036 273.205C306.168 274.819 306.938 276.827 308.663 277.447L336.249 287.375C337.648 287.878 339.204 287.281 339.908 285.972Z" fill="#172830" stroke="#172830"/>
<path d="M356.072 161.225L344.284 133.181C343.708 131.811 342.215 131.069 340.775 131.437L312.37 138.7C310.595 139.154 309.638 141.08 310.348 142.769L325.476 178.761C326.186 180.45 328.232 181.114 329.798 180.163L354.862 164.953C356.133 164.181 356.648 162.596 356.072 161.225Z" fill="#172830" stroke="#172830"/>
<path d="M286.25 75.7778L258.368 63.6106C257.006 63.016 255.413 63.5089 254.625 64.7691L239.075 89.6245C238.104 91.178 238.739 93.2322 240.419 93.9652L276.202 109.581C277.882 110.313 279.82 109.383 280.298 107.614L287.946 79.31C288.334 77.875 287.613 76.3724 286.25 75.7778Z" fill="#172830" stroke="#172830"/>
<circle cx="208" cy="208" r="122" stroke="#172830" stroke-width="26"/>
<circle cx="208" cy="208" r="120" stroke="#FF8100" stroke-width="6"/>
<path fill-rule="evenodd" clip-rule="evenodd" d="M271.524 168.11C266.05 159.412 258.839 151.917 250.378 146.112L314.652 94.6146C315.81 93.6864 317.473 93.745 318.563 94.7523L323.924 99.7051C325.09 100.782 325.215 102.582 324.208 103.81L271.524 168.11ZM279.183 231.685C281.659 224.24 283 216.277 283 208C283 199.508 281.589 191.346 278.988 183.735L394.397 199.152C395.887 199.351 397 200.623 397 202.126V208.481C397 209.938 395.954 211.184 394.519 211.436L279.183 231.685ZM248.963 270.836C257.686 265.138 265.149 257.673 270.845 248.949L324.209 314.086C325.215 315.314 325.09 317.114 323.924 318.191L318.452 323.247C317.362 324.255 315.699 324.313 314.54 323.385L248.963 270.836ZM183.749 278.993C191.356 281.59 199.513 283 208 283C216.27 283 224.227 281.662 231.666 279.19L211.438 393.523C211.185 394.956 209.939 396 208.484 396H202.123C200.621 396 199.35 394.889 199.15 393.4L183.749 278.993ZM145.196 249.012C150.875 257.69 158.303 265.12 166.981 270.799L101.348 323.385C100.19 324.314 98.527 324.255 97.4368 323.248L92.0762 318.295C90.9101 317.218 90.7853 315.418 91.7915 314.19L145.196 249.012ZM136.817 184.315C134.341 191.76 133 199.723 133 208C133 216.492 134.411 224.654 137.012 232.265L21.6028 216.848C20.1127 216.649 19 215.377 19 213.874V207.519C19 206.062 20.0465 204.816 21.4812 204.564L136.817 184.315ZM145.848 166.009L94.792 103.706C93.7856 102.478 93.9104 100.678 95.0767 99.6011L100.326 94.7519C101.416 93.7448 103.079 93.6862 104.237 94.6142L167.203 145.056C158.759 150.54 151.488 157.678 145.848 166.009ZM231.666 136.81C224.227 134.338 216.27 133 208 133C199.513 133 191.356 134.41 183.749 137.007L199.15 22.5998C199.35 21.111 200.621 20 202.123 20H208.484C209.939 20 211.185 21.0444 211.438 22.4773L231.666 136.81Z" fill="#172830"/>
<path d="M250.378 146.112L250.066 145.722L249.54 146.143L250.095 146.524L250.378 146.112ZM271.524 168.11L271.1 168.376L271.47 168.964L271.91 168.427L271.524 168.11ZM314.652 94.6146L314.339 94.2244V94.2244L314.652 94.6146ZM318.563 94.7523L318.903 94.3851H318.903L318.563 94.7523ZM323.924 99.7051L323.584 100.072H323.584L323.924 99.7051ZM324.208 103.81L323.822 103.493L324.208 103.81ZM279.183 231.685L278.709 231.528L278.444 232.323L279.27 232.178L279.183 231.685ZM278.988 183.735L279.054 183.239L278.254 183.132L278.515 183.897L278.988 183.735ZM394.397 199.152L394.463 198.657H394.463L394.397 199.152ZM394.519 211.436L394.432 210.943L394.519 211.436ZM270.845 248.949L271.232 248.632L270.8 248.104L270.426 248.675L270.845 248.949ZM248.963 270.836L248.69 270.417L248.112 270.794L248.65 271.226L248.963 270.836ZM324.209 314.086L323.822 314.403L324.209 314.086ZM323.924 318.191L323.585 317.824L323.924 318.191ZM318.452 323.247L318.792 323.615L318.452 323.247ZM314.54 323.385L314.228 323.775V323.775L314.54 323.385ZM183.749 278.993L183.911 278.519L183.146 278.258L183.253 279.059L183.749 278.993ZM231.666 279.19L232.159 279.277L232.305 278.451L231.509 278.715L231.666 279.19ZM211.438 393.523L210.946 393.436L211.438 393.523ZM199.15 393.4L198.654 393.467L199.15 393.4ZM166.981 270.799L167.294 271.189L167.832 270.758L167.255 270.381L166.981 270.799ZM145.196 249.012L145.614 248.738L145.241 248.168L144.809 248.695L145.196 249.012ZM101.348 323.385L101.036 322.995H101.036L101.348 323.385ZM97.4368 323.248L97.0975 323.615L97.4368 323.248ZM92.0762 318.295L92.4155 317.928L92.0762 318.295ZM91.7915 314.19L91.4048 313.873L91.7915 314.19ZM136.817 184.315L137.291 184.472L137.556 183.677L136.73 183.822L136.817 184.315ZM137.012 232.265L136.946 232.761L137.746 232.868L137.485 232.103L137.012 232.265ZM21.6028 216.848L21.5366 217.343H21.5366L21.6028 216.848ZM21.4812 204.564L21.3948 204.072H21.3948L21.4812 204.564ZM94.792 103.706L94.4052 104.023L94.792 103.706ZM145.848 166.009L145.461 166.326L145.886 166.845L146.262 166.289L145.848 166.009ZM95.0767 99.6011L94.7374 99.2338L95.0767 99.6011ZM100.326 94.7519L99.9865 94.3846H99.9865L100.326 94.7519ZM104.237 94.6142L104.55 94.224H104.55L104.237 94.6142ZM167.203 145.056L167.475 145.476L168.055 145.099L167.515 144.666L167.203 145.056ZM231.666 136.81L231.509 137.285L232.305 137.55L232.159 136.723L231.666 136.81ZM183.749 137.007L183.253 136.941L183.146 137.742L183.911 137.481L183.749 137.007ZM199.15 22.5998L198.654 22.5331V22.5331L199.15 22.5998ZM211.438 22.4773L210.946 22.5645V22.5645L211.438 22.4773ZM250.095 146.524C258.5 152.29 265.663 159.736 271.1 168.376L271.947 167.844C266.437 159.088 259.178 151.543 250.661 145.7L250.095 146.524ZM250.691 146.502L314.964 95.0048L314.339 94.2244L250.066 145.722L250.691 146.502ZM314.964 95.0048C315.93 94.2313 317.315 94.2801 318.224 95.1196L318.903 94.3851C317.631 93.2098 315.69 93.1415 314.339 94.2244L314.964 95.0048ZM318.224 95.1196L323.584 100.072L324.263 99.3378L318.903 94.3851L318.224 95.1196ZM323.584 100.072C324.556 100.97 324.66 102.47 323.822 103.493L324.595 104.127C325.769 102.694 325.624 100.595 324.263 99.3378L323.584 100.072ZM323.822 103.493L271.137 167.793L271.91 168.427L324.595 104.127L323.822 103.493ZM282.5 208C282.5 216.222 281.168 224.133 278.709 231.528L279.658 231.843C282.15 224.348 283.5 216.331 283.5 208H282.5ZM278.515 183.897C281.098 191.456 282.5 199.564 282.5 208H283.5C283.5 199.452 282.079 191.236 279.461 183.573L278.515 183.897ZM394.463 198.657L279.054 183.239L278.922 184.231L394.331 199.648L394.463 198.657ZM397.5 202.126C397.5 200.372 396.202 198.889 394.463 198.657L394.331 199.648C395.573 199.814 396.5 200.873 396.5 202.126H397.5ZM397.5 208.481V202.126H396.5V208.481H397.5ZM394.605 211.928C396.279 211.634 397.5 210.18 397.5 208.481H396.5C396.5 209.695 395.628 210.733 394.432 210.943L394.605 211.928ZM279.27 232.178L394.605 211.928L394.432 210.943L279.097 231.193L279.27 232.178ZM270.426 248.675C264.768 257.341 257.354 264.757 248.69 270.417L249.237 271.254C258.017 265.518 265.53 258.004 271.264 249.222L270.426 248.675ZM270.458 249.265L323.822 314.403L324.596 313.77L271.232 248.632L270.458 249.265ZM323.822 314.403C324.66 315.427 324.556 316.926 323.585 317.824L324.264 318.558C325.624 317.301 325.769 315.202 324.596 313.77L323.822 314.403ZM323.585 317.824L318.113 322.88L318.792 323.615L324.264 318.558L323.585 317.824ZM318.113 322.88C317.204 323.72 315.818 323.768 314.853 322.995L314.228 323.775C315.579 324.858 317.52 324.79 318.792 323.615L318.113 322.88ZM314.853 322.995L249.276 270.445L248.65 271.226L314.228 323.775L314.853 322.995ZM208 282.5C199.569 282.5 191.466 281.1 183.911 278.519L183.587 279.466C191.246 282.081 199.458 283.5 208 283.5V282.5ZM231.509 278.715C224.119 281.17 216.215 282.5 208 282.5V283.5C216.324 283.5 224.334 282.153 231.824 279.664L231.509 278.715ZM211.931 393.61L232.159 279.277L231.174 279.102L210.946 393.436L211.931 393.61ZM208.484 396.5C210.182 396.5 211.635 395.282 211.931 393.61L210.946 393.436C210.735 394.63 209.697 395.5 208.484 395.5V396.5ZM202.123 396.5H208.484V395.5H202.123V396.5ZM198.654 393.467C198.888 395.204 200.371 396.5 202.123 396.5V395.5C200.871 395.5 199.813 394.574 199.646 393.334L198.654 393.467ZM183.253 279.059L198.654 393.467L199.646 393.334L184.245 278.926L183.253 279.059ZM167.255 270.381C158.635 264.739 151.255 257.359 145.614 248.738L144.778 249.285C150.494 258.021 157.972 265.5 166.707 271.217L167.255 270.381ZM166.668 270.409L101.036 322.995L101.661 323.776L167.294 271.189L166.668 270.409ZM101.036 322.995C100.07 323.769 98.6846 323.72 97.7761 322.88L97.0975 323.615C98.3694 324.79 100.31 324.858 101.661 323.776L101.036 322.995ZM97.7761 322.88L92.4155 317.928L91.7369 318.662L97.0975 323.615L97.7761 322.88ZM92.4155 317.928C91.4438 317.03 91.3398 315.53 92.1783 314.507L91.4048 313.873C90.2309 315.306 90.3765 317.405 91.7369 318.662L92.4155 317.928ZM92.1783 314.507L145.583 249.329L144.809 248.695L91.4048 313.873L92.1783 314.507ZM133.5 208C133.5 199.778 134.832 191.867 137.291 184.472L136.342 184.157C133.85 191.652 132.5 199.669 132.5 208H133.5ZM137.485 232.103C134.902 224.544 133.5 216.436 133.5 208H132.5C132.5 216.548 133.921 224.764 136.539 232.427L137.485 232.103ZM21.5366 217.343L136.946 232.761L137.078 231.769L21.669 216.352L21.5366 217.343ZM18.5 213.874C18.5 215.628 19.7981 217.111 21.5366 217.343L21.669 216.352C20.4272 216.186 19.5 215.127 19.5 213.874H18.5ZM18.5 207.519V213.874H19.5V207.519H18.5ZM21.3948 204.072C19.7209 204.366 18.5 205.82 18.5 207.519H19.5C19.5 206.305 20.372 205.267 21.5677 205.057L21.3948 204.072ZM136.73 183.822L21.3948 204.072L21.5677 205.057L136.903 184.807L136.73 183.822ZM94.4052 104.023L145.461 166.326L146.235 165.692L95.1787 103.389L94.4052 104.023ZM94.7374 99.2338C93.3767 100.491 93.2311 102.59 94.4052 104.023L95.1787 103.389C94.34 102.366 94.444 100.866 95.4159 99.9683L94.7374 99.2338ZM99.9865 94.3846L94.7374 99.2338L95.4159 99.9683L100.665 95.1192L99.9865 94.3846ZM104.55 94.224C103.198 93.1413 101.258 93.2096 99.9865 94.3846L100.665 95.1192C101.574 94.2799 102.959 94.2311 103.925 95.0044L104.55 94.224ZM167.515 144.666L104.55 94.224L103.925 95.0044L166.89 145.447L167.515 144.666ZM146.262 166.289C151.864 158.013 159.087 150.923 167.475 145.476L166.93 144.637C158.43 150.158 151.111 157.342 145.434 165.729L146.262 166.289ZM208 133.5C216.215 133.5 224.119 134.83 231.509 137.285L231.824 136.336C224.334 133.847 216.324 132.5 208 132.5V133.5ZM183.911 137.481C191.466 134.9 199.569 133.5 208 133.5V132.5C199.458 132.5 191.246 133.919 183.587 136.534L183.911 137.481ZM184.245 137.074L199.646 22.6665L198.654 22.5331L183.253 136.941L184.245 137.074ZM199.646 22.6665C199.813 21.4259 200.871 20.5 202.123 20.5V19.5C200.371 19.5 198.888 20.7962 198.654 22.5331L199.646 22.6665ZM202.123 20.5H208.484V19.5H202.123V20.5ZM208.484 20.5C209.697 20.5 210.735 21.3703 210.946 22.5645L211.931 22.3902C211.635 20.7184 210.182 19.5 208.484 19.5V20.5ZM210.946 22.5645L231.174 136.898L232.159 136.723L211.931 22.3902L210.946 22.5645Z" fill="#172830"/>
<circle cx="208" cy="208" r="45" fill="#172830"/>
</svg>
